<?xml version="1.0" standalone="no"?><!DOCTYPE svg PUBLIC "-//W3C//DTD SVG 1.1//EN" "http://www.w3.org/Graphics/SVG/1.1/DTD/svg11.dtd"><svg t="1603865241239" class="icon" viewBox="0 0 1024 1024" version="1.1" xmlns="http://www.w3.org/2000/svg" p-id="1566" xmlns:xlink="http://www.w3.org/1999/xlink" width="200" height="200"><defs><style type="text/css"></style></defs><path d="M504.123077 328.467692c-8.664615 0-16.541538-3.150769-22.055385-9.452307L342.646154 179.593846c-12.603077-12.603077-12.603077-32.295385 0-44.898461 12.603077-12.603077 32.295385-12.603077 44.898461 0L504.123077 252.061538l116.578461-116.578461c12.603077-12.603077 32.295385-12.603077 44.898462 0 12.603077 12.603077 12.603077 32.295385 0 44.898461L526.178462 319.015385c-5.513846 6.301538-13.390769 9.452308-22.055385 9.452307zM364.701538 916.086154c-7.876923 0-15.753846-3.150769-22.055384-9.452308-12.603077-12.603077-12.603077-32.295385 0-44.898461l139.421538-139.421539c12.603077-12.603077 32.295385-12.603077 44.898462 0l139.421538 139.421539c12.603077 12.603077 12.603077 32.295385 0 44.898461-12.603077 12.603077-32.295385 12.603077-44.898461 0L504.123077 790.055385l-116.578462 116.578461c-6.301538 6.301538-14.966154 9.452308-22.843077 9.452308z" fill="#7F7F7F" p-id="1567"></path><path d="M504.123077 937.353846c-17.329231 0-31.507692-14.178462-31.507692-31.507692V118.153846c0-17.329231 14.178462-31.507692 31.507692-31.507692s31.507692 14.178462 31.507692 31.507692v787.692308c0 17.329231-14.178462 31.507692-31.507692 31.507692zM127.606154 486.793846c-14.178462 0-26.781538-9.452308-30.72-23.630769-4.726154-16.541538 5.513846-33.870769 22.055384-38.596923l159.901539-42.535385L236.307692 222.129231c-4.726154-16.541538 5.513846-33.870769 22.055385-38.596923 16.541538-4.726154 33.870769 5.513846 38.596923 22.055384l51.2 189.833846c2.363077 7.876923 0.787692 16.541538-3.150769 23.63077s-11.027692 12.603077-18.904616 14.966154l-189.833846 51.2c-3.150769 1.575385-6.301538 1.575385-8.664615 1.575384zM756.972308 850.707692c-14.178462 0-26.781538-9.452308-30.72-23.630769l-51.2-189.833846c-4.726154-16.541538 5.513846-33.870769 22.055384-38.596923l189.833846-51.2c16.541538-4.726154 33.870769 5.513846 38.596924 22.055384 4.726154 16.541538-5.513846 33.870769-22.055385 38.596924l-159.901539 42.535384 42.535385 159.901539c4.726154 16.541538-5.513846 33.870769-22.055385 38.596923-1.575385 0.787692-3.938462 1.575385-7.08923 1.575384z" fill="#7F7F7F" p-id="1568"></path><path d="M845.193846 740.430769c-5.513846 0-11.027692-1.575385-15.753846-3.938461l-682.141538-393.846154c-14.966154-8.664615-20.48-28.356923-11.815385-43.323077s28.356923-20.48 43.323077-11.815385l682.141538 393.846154c14.966154 8.664615 20.48 28.356923 11.815385 43.323077-6.301538 10.24-16.541538 15.753846-27.569231 15.753846zM267.027692 841.255385c-2.363077 0-5.513846 0-7.876923-0.787693-16.541538-4.726154-26.781538-22.055385-22.055384-38.596923l42.535384-159.901538-159.901538-42.535385c-16.541538-4.726154-26.781538-22.055385-22.055385-38.596923 4.726154-16.541538 22.055385-26.781538 38.596923-22.055385l189.833846 51.2c7.876923 2.363077 14.966154 7.089231 18.904616 14.966154s5.513846 15.753846 3.150769 23.63077l-51.2 189.833846c-3.938462 13.390769-16.541538 22.843077-29.932308 22.843077zM896.393846 477.341538c-2.363077 0-5.513846 0-7.876923-0.787692L697.895385 425.353846c-16.541538-4.726154-26.781538-22.055385-22.055385-38.596923L727.04 196.923077c4.726154-16.541538 22.055385-26.781538 38.596923-22.055385 16.541538 4.726154 26.781538 22.055385 22.055385 38.596923l-42.535385 159.901539 159.901539 42.535384c16.541538 4.726154 26.781538 22.055385 22.055384 38.596924-3.938462 14.178462-16.541538 22.843077-30.72 22.843076z" fill="#7F7F7F" p-id="1569"></path><path d="M163.052308 740.430769c-11.027692 0-21.267692-5.513846-27.569231-15.753846-8.664615-14.966154-3.150769-34.658462 11.815385-43.323077l682.141538-393.846154c14.966154-8.664615 34.658462-3.150769 43.323077 11.815385 8.664615 14.966154 3.150769 34.658462-11.815385 43.323077l-682.141538 393.846154c-4.726154 2.363077-10.24 3.938462-15.753846 3.938461z" fill="#7F7F7F" p-id="1570"></path></svg>