<?xml version="1.0" standalone="no"?><!DOCTYPE svg PUBLIC "-//W3C//DTD SVG 1.1//EN" "http://www.w3.org/Graphics/SVG/1.1/DTD/svg11.dtd"><svg t="1604991012552" class="icon" viewBox="0 0 1024 1024" version="1.1" xmlns="http://www.w3.org/2000/svg" p-id="3412" xmlns:xlink="http://www.w3.org/1999/xlink" width="200" height="200"><defs><style type="text/css"></style></defs><path d="M572.330667 270.634667l60.330666 60.373333 196.138667-196.138667a21.333333 21.333333 0 0 1 30.165333 0l30.165334 30.165334a21.333333 21.333333 0 0 1 0 30.165333l-196.138667 196.138667 60.373333 60.330666a21.333333 21.333333 0 0 1-15.104 36.394667h-180.992a21.333333 21.333333 0 0 1-21.333333-21.333333V285.738667a21.333333 21.333333 0 0 1 36.394667-15.104z m-301.653334 301.696a21.333333 21.333333 0 0 1 15.061334-36.394667h180.992a21.333333 21.333333 0 0 1 21.333333 21.333333v180.992a21.333333 21.333333 0 0 1-36.394667 15.104L391.253333 693.034667 195.2 889.173333a21.333333 21.333333 0 0 1-27.178667 2.474667l-2.986666-2.474667-30.165334-30.165333a21.333333 21.333333 0 0 1 0-30.165333l196.096-196.096z" p-id="3413"></path></svg>